PS_ngait_og_ss11_kinetics.mot
version=1
nRows=27
nColumns=28
inDegrees=yes
endheader
time	1_ground_force_vx	1_ground_force_vy	1_ground_force_vz	1_ground_force_px	1_ground_force_py	1_ground_force_pz	2_ground_force_vx	2_ground_force_vy	2_ground_force_vz	2_ground_force_px	2_ground_force_py	2_ground_force_pz	3_ground_force_vx	3_ground_force_vy	3_ground_force_vz	3_ground_force_px	3_ground_force_py	3_ground_force_pz	1_ground_torque_x	1_ground_torque_y	1_ground_torque_z	2_ground_torque_x	2_ground_torque_y	2_ground_torque_z	3_ground_torque_x	3_ground_torque_y	3_ground_torque_z
  0.55000000	 54.03324234	818.73489003	 57.77166580	  0.46920503	 -0.00600000	  0.08903019	  0.00000000	  0.00000000	  0.00000000	 -0.30000000	 -0.00600000	  0.20000000	  0.00000000	  0.00000000	  0.00000000	  0.90000000	 -0.00600000	  0.20000000	  0.00000000	  0.77287908	  0.00000000	  0.00000000	  0.00000000	  0.00000000	  0.00000000	  0.00000000	  0.00000000
  0.55083333	 54.73190296	817.92374830	 57.70183448	  0.46938983	 -0.00600000	  0.08902657	  0.00000000	  0.00000000	  0.00000000	 -0.30000000	 -0.00600000	  0.20000000	  0.00000000	  0.00000000	  0.00000000	  0.90000000	 -0.00600000	  0.20000000	  0.00000000	  0.75989658	  0.00000000	  0.00000000	  0.00000000	  0.00000000	  0.00000000	  0.00000000	  0.00000000
  0.55166667	 55.43759956	817.06986133	 57.62763520	  0.46957846	 -0.00600000	  0.08901596	  0.00000000	  0.00000000	  0.00000000	 -0.30000000	 -0.00600000	  0.20000000	  0.00000000	  0.00000000	  0.00000000	  0.90000000	 -0.00600000	  0.20000000	  0.00000000	  0.74499053	  0.00000000	  0.00000000	  0.00000000	  0.00000000	  0.00000000	  0.00000000	  0.00000000
  0.55250000	 56.15013997	816.18161335	 57.54740358	  0.46976876	 -0.00600000	  0.08900588	  0.00000000	  0.00000000	  0.00000000	 -0.30000000	 -0.00600000	  0.20000000	  0.00000000	  0.00000000	  0.00000000	  0.90000000	 -0.00600000	  0.20000000	  0.00000000	  0.72781681	  0.00000000	  0.00000000	  0.00000000	  0.00000000	  0.00000000	  0.00000000	  0.00000000
  0.55333333	 56.86831737	815.26601969	 57.46066887	  0.46995914	 -0.00600000	  0.08899987	  0.00000000	  0.00000000	  0.00000000	 -0.30000000	 -0.00600000	  0.20000000	  0.00000000	  0.00000000	  0.00000000	  0.90000000	 -0.00600000	  0.20000000	  0.00000000	  0.70843052	  0.00000000	  0.00000000	  0.00000000	  0.00000000	  0.00000000	  0.00000000	  0.00000000
  0.55416667	 57.59045271	814.32499919	 57.36760490	  0.47014920	 -0.00600000	  0.08899715	  0.00000000	  0.00000000	  0.00000000	 -0.30000000	 -0.00600000	  0.20000000	  0.00000000	  0.00000000	  0.00000000	  0.90000000	 -0.00600000	  0.20000000	  0.00000000	  0.68709005	  0.00000000	  0.00000000	  0.00000000	  0.00000000	  0.00000000	  0.00000000	  0.00000000
  0.55500000	 58.31485685	813.35699700	 57.26825113	  0.47033905	 -0.00600000	  0.08899490	  0.00000000	  0.00000000	  0.00000000	 -0.30000000	 -0.00600000	  0.20000000	  0.00000000	  0.00000000	  0.00000000	  0.90000000	 -0.00600000	  0.20000000	  0.00000000	  0.66383047	  0.00000000	  0.00000000	  0.00000000	  0.00000000	  0.00000000	  0.00000000	  0.00000000
  0.55583333	 59.03990458	812.36007215	 57.16206729	  0.47052834	 -0.00600000	  0.08898985	  0.00000000	  0.00000000	  0.00000000	 -0.30000000	 -0.00600000	  0.20000000	  0.00000000	  0.00000000	  0.00000000	  0.90000000	 -0.00600000	  0.20000000	  0.00000000	  0.63856934	  0.00000000	  0.00000000	  0.00000000	  0.00000000	  0.00000000	  0.00000000	  0.00000000
  0.55666667	 59.76441370	811.33319826	 57.04807247	  0.47071582	 -0.00600000	  0.08897925	  0.00000000	  0.00000000	  0.00000000	 -0.30000000	 -0.00600000	  0.20000000	 18.69377551	 22.63736308	  5.42609035	  0.77094352	 -0.00600000	  0.23020279	  0.00000000	  0.61152332	  0.00000000	  0.00000000	  0.00000000	  0.00000000	  0.00000000	  0.17900461	  0.00000000
  0.55750000	 60.48877168	810.27515647	 56.92525727	  0.47089981	 -0.00600000	  0.08896170	  0.00000000	  0.00000000	  0.00000000	 -0.30000000	 -0.00600000	  0.20000000	 22.05705643	 26.86784562	  5.38454905	  0.77462696	 -0.00600000	  0.23252728	  0.00000000	  0.58322212	  0.00000000	  0.00000000	  0.00000000	  0.00000000	  0.00000000	  0.23594295	  0.00000000
  0.55833333	 61.21562379	809.18352678	 56.79320938	  0.47107905	 -0.00600000	  0.08893723	  0.00000000	  0.00000000	  0.00000000	 -0.30000000	 -0.00600000	  0.20000000	 25.48251327	 31.30053939	  5.17655947	  0.77805899	 -0.00600000	  0.23456758	  0.00000000	  0.55432799	  0.00000000	  0.00000000	  0.00000000	  0.00000000	  0.00000000	  0.29346422	  0.00000000
  0.55916667	 61.94962004	808.05603465	 56.65214164	  0.47125375	 -0.00600000	  0.08890644	  0.00000000	  0.00000000	  0.00000000	 -0.30000000	 -0.00600000	  0.20000000	 28.90756382	 35.90534129	  4.82979572	  0.78123112	 -0.00600000	  0.23634425	  0.00000000	  0.52573053	  0.00000000	  0.00000000	  0.00000000	  0.00000000	  0.00000000	  0.34936966	  0.00000000
  0.56000000	 62.69652540	806.89263278	 56.50176140	  0.47142573	 -0.00600000	  0.08886982	  0.00000000	  0.00000000	  0.00000000	 -0.30000000	 -0.00600000	  0.20000000	 32.27753704	 40.65775729	  4.37717857	  0.78411170	 -0.00600000	  0.23787553	  0.00000000	  0.49846296	  0.00000000	  0.00000000	  0.00000000	  0.00000000	  0.00000000	  0.40202868	  0.00000000
  0.56083333	 63.46136684	805.69632112	 56.34060788	  0.47159731	 -0.00600000	  0.08882801	  0.00000000	  0.00000000	  0.00000000	 -0.30000000	 -0.00600000	  0.20000000	 35.54491415	 45.53572702	  3.85420648	  0.78667379	 -0.00600000	  0.23918365	  0.00000000	  0.47302547	  0.00000000	  0.00000000	  0.00000000	  0.00000000	  0.00000000	  0.45019135	  0.00000000
  0.56166667	 64.24647669	804.47220377	 56.16704787	  0.47176958	 -0.00600000	  0.08878259	  0.00000000	  0.00000000	  0.00000000	 -0.30000000	 -0.00600000	  0.20000000	 38.66792560	 50.51696096	  3.29694222	  0.78891195	 -0.00600000	  0.24029722	  0.00000000	  0.44897420	  0.00000000	  0.00000000	  0.00000000	  0.00000000	  0.00000000	  0.49277724	  0.00000000
  0.56250000	 65.05054464	803.22527462	 55.98080716	  0.47194209	 -0.00600000	  0.08873657	  0.00000000	  0.00000000	  0.00000000	 -0.30000000	 -0.00600000	  0.20000000	 41.61022530	 55.57774227	  2.73722771	  0.79084978	 -0.00600000	  0.24124480	  0.00000000	  0.42536530	  0.00000000	  0.00000000	  0.00000000	  0.00000000	  0.00000000	  0.52921827	  0.00000000
  0.56333333	 65.86967275	801.95916976	 55.78366501	  0.47211354	 -0.00600000	  0.08869404	  0.00000000	  0.00000000	  0.00000000	 -0.30000000	 -0.00600000	  0.20000000	 44.34253002	 60.69326827	  2.19933139	  0.79253507	 -0.00600000	  0.24204764	  0.00000000	  0.40149982	  0.00000000	  0.00000000	  0.00000000	  0.00000000	  0.00000000	  0.55967441	  0.00000000
  0.56416667	 66.70106130	800.67674778	 55.57949910	  0.47228218	 -0.00600000	  0.08865927	  0.00000000	  0.00000000	  0.00000000	 -0.30000000	 -0.00600000	  0.20000000	 46.84421427	 65.83923369	  1.70199346	  0.79402242	 -0.00600000	  0.24271783	  0.00000000	  0.37744791	  0.00000000	  0.00000000	  0.00000000	  0.00000000	  0.00000000	  0.58464723	  0.00000000
  0.56500000	 67.54564299	799.38023388	 55.37436265	  0.47244623	 -0.00600000	  0.08863577	  0.00000000	  0.00000000	  0.00000000	 -0.30000000	 -0.00600000	  0.20000000	 49.10264056	 70.99435910	  1.26247229	  0.79536159	 -0.00600000	  0.24326056	  0.00000000	  0.35412756	  0.00000000	  0.00000000	  0.00000000	  0.00000000	  0.00000000	  0.60441228	  0.00000000
  0.56583333	 68.40616874	798.07004293	 55.17626842	  0.47260449	 -0.00600000	  0.08862547	  0.00000000	  0.00000000	  0.00000000	 -0.30000000	 -0.00600000	  0.20000000	 51.11066892	 76.14131395	  0.89764630	  0.79659584	 -0.00600000	  0.24367808	  0.00000000	  0.33303688	  0.00000000	  0.00000000	  0.00000000	  0.00000000	  0.00000000	  0.61887254	  0.00000000
  0.56666667	 69.28362143	796.74327649	 54.99328440	  0.47275661	 -0.00600000	  0.08862787	  0.00000000	  0.00000000	  0.00000000	 -0.30000000	 -0.00600000	  0.20000000	 52.86414197	 81.26460161	  0.62286351	  0.79775854	 -0.00600000	  0.24397140	  0.00000000	  0.31570920	  0.00000000	  0.00000000	  0.00000000	  0.00000000	  0.00000000	  0.62788415	  0.00000000
  0.56750000	 70.17626912	795.39277035	 54.82929269	  0.47290288	 -0.00600000	  0.08864029	  0.00000000	  0.00000000	  0.00000000	 -0.30000000	 -0.00600000	  0.20000000	 54.35999850	 86.34809308	  0.45179933	  0.79886986	 -0.00600000	  0.24414019	  0.00000000	  0.30284992	  0.00000000	  0.00000000	  0.00000000	  0.00000000	  0.00000000	  0.63129983	  0.00000000
  0.56833333	 71.08129336	794.00882962	 54.68120641	  0.47304334	 -0.00600000	  0.08865982	  0.00000000	  0.00000000	  0.00000000	 -0.30000000	 -0.00600000	  0.20000000	 55.59484447	 91.37426503	  0.39695981	  0.79993958	 -0.00600000	  0.24418593	  0.00000000	  0.29401135	  0.00000000	  0.00000000	  0.00000000	  0.00000000	  0.00000000	  0.62836840	  0.00000000
  0.56916667	 71.99599441	792.58404726	 54.54176347	  0.47317656	 -0.00600000	  0.08868538	  0.00000000	  0.00000000	  0.00000000	 -0.30000000	 -0.00600000	  0.20000000	 56.56430671	 96.32369576	  0.46865870	  0.80097128	 -0.00600000	  0.24411697	  0.00000000	  0.28840719	  0.00000000	  0.00000000	  0.00000000	  0.00000000	  0.00000000	  0.61736175	  0.00000000
  0.57000000	 72.91751739	791.11647758	 54.40465113	  0.47329981	 -0.00600000	  0.08871760	  0.00000000	  0.00000000	  0.00000000	 -0.30000000	 -0.00600000	  0.20000000	 57.26318124	101.17450191	  0.67286677	  0.80196553	 -0.00600000	  0.24394867	  0.00000000	  0.28584601	  0.00000000	  0.00000000	  0.00000000	  0.00000000	  0.00000000	  0.59610191	  0.00000000
  0.57083333	 73.84304730	789.60730706	 54.26628659	  0.47341063	 -0.00600000	  0.08875741	  0.00000000	  0.00000000	  0.00000000	 -0.30000000	 -0.00600000	  0.20000000	 57.68582784	105.90365670	  1.01015412	  0.80292665	 -0.00600000	  0.24369891	  0.00000000	  0.28677649	  0.00000000	  0.00000000	  0.00000000	  0.00000000	  0.00000000	  0.56285840	  0.00000000
  0.57166667	 74.77104457	788.05515866	 54.12458411	  0.47350846	 -0.00600000	  0.08880531	  0.00000000	  0.00000000	  0.00000000	 -0.30000000	 -0.00600000	  0.20000000	 57.82651431	110.48913352	  1.47639537	  0.80386924	 -0.00600000	  0.24338487	  0.00000000	  0.29164508	  0.00000000	  0.00000000	  0.00000000	  0.00000000	  0.00000000	  0.51686391	  0.00000000
